<svg xmlns="http://www.w3.org/2000/svg" xmlns:xlink="http://www.w3.org/1999/xlink" width="374" height="374" version="1.1" viewBox="0 0 374 374"><title>mission briefing bg</title><g id="mission-briefing-bg" fill="none" fill-rule="evenodd" stroke="none" stroke-linecap="round" stroke-linejoin="round" stroke-width="1" opacity=".097"><g id="logo-pattern" stroke="#000" stroke-width="7.5" transform="translate(-57.000000, -57.000000)"><g id="mission-briefing-icon" transform="translate(187.000000, 187.000000)"><path id="Path" d="M83,34.75 L83,27.25 C83,12.755 71.245,1 56.75,1 C42.255,1 30.5,12.755 30.5,27.25 L30.5,34.75"/><path id="Path" d="M8,113.5 C8,86.575 29.825,64.75 56.75,64.75 C83.675,64.75 105.5,86.575 105.5,113.5"/><path id="Path" d="M83,34.75 C83,45.105 71.245,56.61 56.75,56.61 C42.255,56.61 30.5,45.105 30.5,34.75 C30.5,24.395 42.25,16 56.75,16 C71.25,16 83,24.395 83,34.75 Z"/><path id="Path" d="M73.615,90.36 C68.435,90.365 64.245,94.565 64.2499955,99.745 C64.255,104.925 68.455,109.115 73.635,109.110004 C78.805,109.105 82.99,104.92 83,99.75 C83,94.57 78.805,90.375 73.625,90.375 L73.625,90.375 L73.615,90.36 Z"/><line id="Path" x1="34.24" x2="49.24" y1="90.36" y2="90.36"/><line id="Path" x1="34.24" x2="49.24" y1="105.36" y2="105.36"/><path id="Path" d="M31,38.5 L30.5,38.5 C22.215,38.5 15.5,45.215 15.5,53.5 L15.5,87.5"/><path id="Path" d="M98,87.505 L98,53.505 C98,45.22 91.285,38.505 83,38.505 L82.475,38.505"/></g><g id="mission-briefing-icon" transform="translate(374.000000, 0.000000)"><path id="Path" d="M83,34.75 L83,27.25 C83,12.755 71.245,1 56.75,1 C42.255,1 30.5,12.755 30.5,27.25 L30.5,34.75"/><path id="Path" d="M8,113.5 C8,86.575 29.825,64.75 56.75,64.75 C83.675,64.75 105.5,86.575 105.5,113.5"/><path id="Path" d="M83,34.75 C83,45.105 71.245,56.61 56.75,56.61 C42.255,56.61 30.5,45.105 30.5,34.75 C30.5,24.395 42.25,16 56.75,16 C71.25,16 83,24.395 83,34.75 Z"/><path id="Path" d="M73.615,90.36 C68.435,90.365 64.245,94.565 64.2499955,99.745 C64.255,104.925 68.455,109.115 73.635,109.110004 C78.805,109.105 82.99,104.92 83,99.75 C83,94.57 78.805,90.375 73.625,90.375 L73.625,90.375 L73.615,90.36 Z"/><line id="Path" x1="34.24" x2="49.24" y1="90.36" y2="90.36"/><line id="Path" x1="34.24" x2="49.24" y1="105.36" y2="105.36"/><path id="Path" d="M31,38.5 L30.5,38.5 C22.215,38.5 15.5,45.215 15.5,53.5 L15.5,87.5"/><path id="Path" d="M98,87.505 L98,53.505 C98,45.22 91.285,38.505 83,38.505 L82.475,38.505"/></g><g id="mission-briefing-icon" transform="translate(374.000000, 374.000000)"><path id="Path" d="M83,34.75 L83,27.25 C83,12.755 71.245,1 56.75,1 C42.255,1 30.5,12.755 30.5,27.25 L30.5,34.75"/><path id="Path" d="M8,113.5 C8,86.575 29.825,64.75 56.75,64.75 C83.675,64.75 105.5,86.575 105.5,113.5"/><path id="Path" d="M83,34.75 C83,45.105 71.245,56.61 56.75,56.61 C42.255,56.61 30.5,45.105 30.5,34.75 C30.5,24.395 42.25,16 56.75,16 C71.25,16 83,24.395 83,34.75 Z"/><path id="Path" d="M73.615,90.36 C68.435,90.365 64.245,94.565 64.2499955,99.745 C64.255,104.925 68.455,109.115 73.635,109.110004 C78.805,109.105 82.99,104.92 83,99.75 C83,94.57 78.805,90.375 73.625,90.375 L73.625,90.375 L73.615,90.36 Z"/><line id="Path" x1="34.24" x2="49.24" y1="90.36" y2="90.36"/><line id="Path" x1="34.24" x2="49.24" y1="105.36" y2="105.36"/><path id="Path" d="M31,38.5 L30.5,38.5 C22.215,38.5 15.5,45.215 15.5,53.5 L15.5,87.5"/><path id="Path" d="M98,87.505 L98,53.505 C98,45.22 91.285,38.505 83,38.505 L82.475,38.505"/></g><g id="mission-briefing-icon"><path id="Path" d="M83,34.75 L83,27.25 C83,12.755 71.245,1 56.75,1 C42.255,1 30.5,12.755 30.5,27.25 L30.5,34.75"/><path id="Path" d="M8,113.5 C8,86.575 29.825,64.75 56.75,64.75 C83.675,64.75 105.5,86.575 105.5,113.5"/><path id="Path" d="M83,34.75 C83,45.105 71.245,56.61 56.75,56.61 C42.255,56.61 30.5,45.105 30.5,34.75 C30.5,24.395 42.25,16 56.75,16 C71.25,16 83,24.395 83,34.75 Z"/><path id="Path" d="M73.615,90.36 C68.435,90.365 64.245,94.565 64.2499955,99.745 C64.255,104.925 68.455,109.115 73.635,109.110004 C78.805,109.105 82.99,104.92 83,99.75 C83,94.57 78.805,90.375 73.625,90.375 L73.625,90.375 L73.615,90.36 Z"/><line id="Path" x1="34.24" x2="49.24" y1="90.36" y2="90.36"/><line id="Path" x1="34.24" x2="49.24" y1="105.36" y2="105.36"/><path id="Path" d="M31,38.5 L30.5,38.5 C22.215,38.5 15.5,45.215 15.5,53.5 L15.5,87.5"/><path id="Path" d="M98,87.505 L98,53.505 C98,45.22 91.285,38.505 83,38.505 L82.475,38.505"/></g><g id="mission-briefing-icon" transform="translate(0.000000, 374.000000)"><path id="Path" d="M83,34.75 L83,27.25 C83,12.755 71.245,1 56.75,1 C42.255,1 30.5,12.755 30.5,27.25 L30.5,34.75"/><path id="Path" d="M8,113.5 C8,86.575 29.825,64.75 56.75,64.75 C83.675,64.75 105.5,86.575 105.5,113.5"/><path id="Path" d="M83,34.75 C83,45.105 71.245,56.61 56.75,56.61 C42.255,56.61 30.5,45.105 30.5,34.75 C30.5,24.395 42.25,16 56.75,16 C71.25,16 83,24.395 83,34.75 Z"/><path id="Path" d="M73.615,90.36 C68.435,90.365 64.245,94.565 64.2499955,99.745 C64.255,104.925 68.455,109.115 73.635,109.110004 C78.805,109.105 82.99,104.92 83,99.75 C83,94.57 78.805,90.375 73.625,90.375 L73.625,90.375 L73.615,90.36 Z"/><line id="Path" x1="34.24" x2="49.24" y1="90.36" y2="90.36"/><line id="Path" x1="34.24" x2="49.24" y1="105.36" y2="105.36"/><path id="Path" d="M31,38.5 L30.5,38.5 C22.215,38.5 15.5,45.215 15.5,53.5 L15.5,87.5"/><path id="Path" d="M98,87.505 L98,53.505 C98,45.22 91.285,38.505 83,38.505 L82.475,38.505"/></g></g></g></svg>