<svg xmlns="http://www.w3.org/2000/svg" xmlns:xlink="http://www.w3.org/1999/xlink" width="374" height="374" version="1.1" viewBox="0 0 374 374"><title>orbit bg</title><g id="orbit-bg" fill="none" fill-rule="evenodd" stroke="none" stroke-linecap="round" stroke-linejoin="round" stroke-width="1" opacity=".099"><g id="logo-pattern" stroke="#000" stroke-width="7.5" transform="translate(-57.000000, -57.000000)"><g id="orbit-icon" transform="translate(187.000000, 187.000000)"><path id="Path" d="M57,45.75 C63.215,45.75 68.25,50.785 68.25,57 C68.25,63.215 63.215,68.25 57,68.25 C50.785,68.25 45.75,63.215 45.75,57 C45.75,50.785 50.785,45.75 57,45.75 Z"/><path id="Path" d="M90.53,60.86 C88.4,79.375 71.66,92.66 53.14,90.53 C34.625,88.4 21.34,71.66 23.47,53.14 C25.435,36.105 39.855,23.25 57,23.25"/><path id="Path" d="M2.74,71.885 C-5.445,41.955 12.185,11.055 42.115,2.87 C72.045,-5.315 102.945,12.315 111.13,42.25 C119.315,72.18 101.685,103.08 71.755,111.265 C62.015,113.93 51.735,113.915 42,111.235"/><path id="Path" d="M83.25,23.25 C89.465,23.25 94.5,28.285 94.5,34.5 C94.5,40.715 89.465,45.75 83.25,45.75 C77.035,45.75 72,40.715 72,34.5 C72,28.285 77.035,23.25 83.25,23.25 Z"/><path id="Path" d="M15.75,87 C21.965,87 27,92.035 27,98.25 C27,104.465 21.965,109.5 15.75,109.5 C9.535,109.5 4.5,104.465 4.5,98.25 C4.5,92.035 9.535,87 15.75,87 Z"/></g><g id="orbit-icon" transform="translate(374.000000, 0.000000)"><path id="Path" d="M57,45.75 C63.215,45.75 68.25,50.785 68.25,57 C68.25,63.215 63.215,68.25 57,68.25 C50.785,68.25 45.75,63.215 45.75,57 C45.75,50.785 50.785,45.75 57,45.75 Z"/><path id="Path" d="M90.53,60.86 C88.4,79.375 71.66,92.66 53.14,90.53 C34.625,88.4 21.34,71.66 23.47,53.14 C25.435,36.105 39.855,23.25 57,23.25"/><path id="Path" d="M2.74,71.885 C-5.445,41.955 12.185,11.055 42.115,2.87 C72.045,-5.315 102.945,12.315 111.13,42.25 C119.315,72.18 101.685,103.08 71.755,111.265 C62.015,113.93 51.735,113.915 42,111.235"/><path id="Path" d="M83.25,23.25 C89.465,23.25 94.5,28.285 94.5,34.5 C94.5,40.715 89.465,45.75 83.25,45.75 C77.035,45.75 72,40.715 72,34.5 C72,28.285 77.035,23.25 83.25,23.25 Z"/><path id="Path" d="M15.75,87 C21.965,87 27,92.035 27,98.25 C27,104.465 21.965,109.5 15.75,109.5 C9.535,109.5 4.5,104.465 4.5,98.25 C4.5,92.035 9.535,87 15.75,87 Z"/></g><g id="orbit-icon" transform="translate(374.000000, 374.000000)"><path id="Path" d="M57,45.75 C63.215,45.75 68.25,50.785 68.25,57 C68.25,63.215 63.215,68.25 57,68.25 C50.785,68.25 45.75,63.215 45.75,57 C45.75,50.785 50.785,45.75 57,45.75 Z"/><path id="Path" d="M90.53,60.86 C88.4,79.375 71.66,92.66 53.14,90.53 C34.625,88.4 21.34,71.66 23.47,53.14 C25.435,36.105 39.855,23.25 57,23.25"/><path id="Path" d="M2.74,71.885 C-5.445,41.955 12.185,11.055 42.115,2.87 C72.045,-5.315 102.945,12.315 111.13,42.25 C119.315,72.18 101.685,103.08 71.755,111.265 C62.015,113.93 51.735,113.915 42,111.235"/><path id="Path" d="M83.25,23.25 C89.465,23.25 94.5,28.285 94.5,34.5 C94.5,40.715 89.465,45.75 83.25,45.75 C77.035,45.75 72,40.715 72,34.5 C72,28.285 77.035,23.25 83.25,23.25 Z"/><path id="Path" d="M15.75,87 C21.965,87 27,92.035 27,98.25 C27,104.465 21.965,109.5 15.75,109.5 C9.535,109.5 4.5,104.465 4.5,98.25 C4.5,92.035 9.535,87 15.75,87 Z"/></g><g id="orbit-icon"><path id="Path" d="M57,45.75 C63.215,45.75 68.25,50.785 68.25,57 C68.25,63.215 63.215,68.25 57,68.25 C50.785,68.25 45.75,63.215 45.75,57 C45.75,50.785 50.785,45.75 57,45.75 Z"/><path id="Path" d="M90.53,60.86 C88.4,79.375 71.66,92.66 53.14,90.53 C34.625,88.4 21.34,71.66 23.47,53.14 C25.435,36.105 39.855,23.25 57,23.25"/><path id="Path" d="M2.74,71.885 C-5.445,41.955 12.185,11.055 42.115,2.87 C72.045,-5.315 102.945,12.315 111.13,42.25 C119.315,72.18 101.685,103.08 71.755,111.265 C62.015,113.93 51.735,113.915 42,111.235"/><path id="Path" d="M83.25,23.25 C89.465,23.25 94.5,28.285 94.5,34.5 C94.5,40.715 89.465,45.75 83.25,45.75 C77.035,45.75 72,40.715 72,34.5 C72,28.285 77.035,23.25 83.25,23.25 Z"/><path id="Path" d="M15.75,87 C21.965,87 27,92.035 27,98.25 C27,104.465 21.965,109.5 15.75,109.5 C9.535,109.5 4.5,104.465 4.5,98.25 C4.5,92.035 9.535,87 15.75,87 Z"/></g><g id="orbit-icon" transform="translate(0.000000, 374.000000)"><path id="Path" d="M57,45.75 C63.215,45.75 68.25,50.785 68.25,57 C68.25,63.215 63.215,68.25 57,68.25 C50.785,68.25 45.75,63.215 45.75,57 C45.75,50.785 50.785,45.75 57,45.75 Z"/><path id="Path" d="M90.53,60.86 C88.4,79.375 71.66,92.66 53.14,90.53 C34.625,88.4 21.34,71.66 23.47,53.14 C25.435,36.105 39.855,23.25 57,23.25"/><path id="Path" d="M2.74,71.885 C-5.445,41.955 12.185,11.055 42.115,2.87 C72.045,-5.315 102.945,12.315 111.13,42.25 C119.315,72.18 101.685,103.08 71.755,111.265 C62.015,113.93 51.735,113.915 42,111.235"/><path id="Path" d="M83.25,23.25 C89.465,23.25 94.5,28.285 94.5,34.5 C94.5,40.715 89.465,45.75 83.25,45.75 C77.035,45.75 72,40.715 72,34.5 C72,28.285 77.035,23.25 83.25,23.25 Z"/><path id="Path" d="M15.75,87 C21.965,87 27,92.035 27,98.25 C27,104.465 21.965,109.5 15.75,109.5 C9.535,109.5 4.5,104.465 4.5,98.25 C4.5,92.035 9.535,87 15.75,87 Z"/></g></g></g></svg>